<svg width="20" height="21" viewBox="0 0 20 21" fill="none" xmlns="http://www.w3.org/2000/svg">
<path fill-rule="evenodd" clip-rule="evenodd" d="M6.22075 1.555C7.19825 1.51 7.50992 1.5 9.99992 1.5C12.4899 1.5 12.8016 1.51083 13.7783 1.555C14.7549 1.59917 15.4216 1.755 16.0049 1.98083C16.6158 2.21167 17.1699 2.5725 17.6283 3.03917C18.0949 3.49667 18.4549 4.05 18.6849 4.66167C18.9116 5.245 19.0666 5.91167 19.1116 6.88667C19.1566 7.86583 19.1666 8.1775 19.1666 10.6667C19.1666 13.1567 19.1558 13.4683 19.1116 14.4458C19.0674 15.4208 18.9116 16.0875 18.6849 16.6708C18.4549 17.2826 18.0943 17.8368 17.6283 18.295C17.1699 18.7617 16.6158 19.1217 16.0049 19.3517C15.4216 19.5783 14.7549 19.7333 13.7799 19.7783C12.8016 19.8233 12.4899 19.8333 9.99992 19.8333C7.50992 19.8333 7.19825 19.8225 6.22075 19.7783C5.24575 19.7342 4.57909 19.5783 3.99575 19.3517C3.38402 19.1216 2.82977 18.761 2.37159 18.295C1.90524 17.8372 1.54435 17.2832 1.31409 16.6717C1.08825 16.0883 0.933252 15.4217 0.888252 14.4467C0.843252 13.4675 0.833252 13.1558 0.833252 10.6667C0.833252 8.17667 0.844085 7.865 0.888252 6.88833C0.932419 5.91167 1.08825 5.245 1.31409 4.66167C1.54469 4.05007 1.90585 3.49609 2.37242 3.03833C2.82995 2.57208 3.38365 2.2112 3.99492 1.98083C4.57825 1.755 5.24492 1.6 6.21992 1.555H6.22075ZM13.7041 3.205C12.7374 3.16083 12.4474 3.15167 9.99992 3.15167C7.55242 3.15167 7.26242 3.16083 6.29575 3.205C5.40159 3.24583 4.91659 3.395 4.59325 3.52083C4.16575 3.6875 3.85992 3.885 3.53909 4.20583C3.23496 4.50171 3.0009 4.8619 2.85409 5.26C2.72825 5.58333 2.57909 6.06833 2.53825 6.9625C2.49409 7.92917 2.48492 8.21917 2.48492 10.6667C2.48492 13.1142 2.49409 13.4042 2.53825 14.3708C2.57909 15.265 2.72825 15.75 2.85409 16.0733C3.00075 16.4708 3.23492 16.8317 3.53909 17.1275C3.83492 17.4317 4.19575 17.6658 4.59325 17.8125C4.91659 17.9383 5.40159 18.0875 6.29575 18.1283C7.26242 18.1725 7.55159 18.1817 9.99992 18.1817C12.4483 18.1817 12.7374 18.1725 13.7041 18.1283C14.5983 18.0875 15.0833 17.9383 15.4066 17.8125C15.8341 17.6458 16.1399 17.4483 16.4608 17.1275C16.7649 16.8317 16.9991 16.4708 17.1458 16.0733C17.2716 15.75 17.4208 15.265 17.4616 14.3708C17.5058 13.4042 17.5149 13.1142 17.5149 10.6667C17.5149 8.21917 17.5058 7.92917 17.4616 6.9625C17.4208 6.06833 17.2716 5.58333 17.1458 5.26C16.9791 4.8325 16.7816 4.52667 16.4608 4.20583C16.1649 3.90173 15.8047 3.66768 15.4066 3.52083C15.0833 3.395 14.5983 3.24583 13.7041 3.205ZM8.82909 13.4925C9.48297 13.7647 10.2111 13.8014 10.889 13.5964C11.567 13.3914 12.1527 12.9574 12.5463 12.3685C12.9398 11.7796 13.1166 11.0724 13.0466 10.3676C12.9766 9.66278 12.6641 9.00414 12.1624 8.50417C11.8426 8.18456 11.4559 7.93984 11.0302 7.78762C10.6045 7.6354 10.1503 7.57947 9.70033 7.62385C9.25039 7.66823 8.81588 7.81181 8.42809 8.04428C8.0403 8.27674 7.70887 8.59229 7.45767 8.96821C7.20647 9.34413 7.04174 9.77107 6.97535 10.2183C6.90895 10.6655 6.94254 11.1219 7.0737 11.5546C7.20486 11.9873 7.43032 12.3855 7.73385 12.7206C8.03739 13.0557 8.41144 13.3193 8.82909 13.4925ZM6.66825 7.335C7.10577 6.89748 7.62519 6.55042 8.19683 6.31363C8.76848 6.07685 9.38117 5.95498 9.99992 5.95498C10.6187 5.95498 11.2314 6.07685 11.803 6.31363C12.3747 6.55042 12.8941 6.89748 13.3316 7.335C13.7691 7.77252 14.1162 8.29193 14.353 8.86358C14.5897 9.43523 14.7116 10.0479 14.7116 10.6667C14.7116 11.2854 14.5897 11.8981 14.353 12.4698C14.1162 13.0414 13.7691 13.5608 13.3316 13.9983C12.448 14.8819 11.2495 15.3784 9.99992 15.3784C8.7503 15.3784 7.55187 14.8819 6.66825 13.9983C5.78464 13.1147 5.28823 11.9163 5.28823 10.6667C5.28823 9.41705 5.78464 8.21861 6.66825 7.335ZM15.7566 6.65667C15.865 6.55439 15.9518 6.4314 16.0118 6.29498C16.0719 6.15856 16.1039 6.01147 16.1061 5.86244C16.1083 5.71341 16.0805 5.56546 16.0245 5.42734C15.9685 5.28923 15.8853 5.16376 15.7799 5.05837C15.6745 4.95297 15.549 4.8698 15.4109 4.81376C15.2728 4.75773 15.1248 4.72998 14.9758 4.73215C14.8268 4.73433 14.6797 4.76638 14.5433 4.82641C14.4069 4.88645 14.2839 4.97325 14.1816 5.08167C13.9827 5.29252 13.8738 5.5726 13.878 5.86244C13.8822 6.15228 13.9992 6.42907 14.2042 6.63404C14.4092 6.83901 14.686 6.95602 14.9758 6.96025C15.2657 6.96447 15.5457 6.85558 15.7566 6.65667Z" fill="#DADBD9"/>
</svg>
