<svg width="82" height="81" viewBox="0 0 82 81" fill="none" xmlns="http://www.w3.org/2000/svg">
<circle cx="41" cy="40.5" r="40.5" fill="#3B3E3B"/>
<path d="M57.0067 28.6565V62.2448H25.2325V20.7323H49.0069V28.6565H57.0067Z" fill="white"/>
<path d="M56.9773 28.6272L48.9775 20.7029V28.6272H56.9773Z" fill="white"/>
<path d="M27.8692 20.7323H25.2325V62.2448H27.8692V20.7323Z" fill="white"/>
<path d="M56.9774 28.6271H54.3406V62.2154H56.9774V28.6271Z" fill="white"/>
<path d="M44.9734 30.8843H42.7253V28.6361C42.7253 27.7331 41.9934 27.0012 41.0904 27.0012C40.1874 27.0012 39.4555 27.7331 39.4555 28.6361V30.8842H37.2074C36.3044 30.8842 35.5724 31.6161 35.5724 32.5191C35.5724 33.4221 36.3044 34.1541 37.2074 34.1541H39.4555V36.4021C39.4555 37.3051 40.1874 38.0371 41.0904 38.0371C41.9934 38.0371 42.7253 37.3051 42.7253 36.4021V34.1544H44.9734C45.8764 34.1544 46.6083 33.4224 46.6083 32.5195C46.6083 31.6165 45.8764 30.8843 44.9734 30.8843Z" fill="#93EC82"/>
<path d="M57.6803 28.6258C57.6799 28.4871 57.6393 28.3521 57.5611 28.2355C57.5354 28.1972 57.5061 28.1617 57.4734 28.1294C57.4729 28.1288 57.4727 28.1283 57.4722 28.1278L49.4724 20.2036C49.3504 20.083 49.1693 20 48.9775 20H25.2031C24.8148 20 24.5 20.3148 24.5 20.7031V62.2156C24.5 62.6039 24.8148 62.9187 25.2031 62.9187H56.9773C57.3656 62.9187 57.6805 62.6039 57.6805 62.2156V28.6272C57.6805 28.6266 57.6803 28.6263 57.6803 28.6258ZM49.6807 22.3892L55.2682 27.924H49.6807V22.3892ZM56.2742 61.5123H25.9062V21.4061H48.2744V28.6272C48.2744 29.0155 48.5892 29.3303 48.9775 29.3303H56.2742V61.5123Z" fill="#7FC36E"/>
<path d="M38.752 36.4025C38.752 37.6917 39.8009 38.7408 41.0902 38.7408C42.3796 38.7408 43.4285 37.6919 43.4285 36.4025V34.8574H44.9734C46.2628 34.8574 47.3117 33.8085 47.3117 32.5193C47.3117 31.2302 46.2628 30.1813 44.9734 30.1813H43.4285V28.6362C43.4285 27.347 42.3796 26.2981 41.0902 26.2981C39.8009 26.2981 38.752 27.347 38.752 28.6362V30.1813H37.207C35.9177 30.1813 34.8688 31.2302 34.8688 32.5193C34.8688 33.8085 35.9177 34.8574 37.207 34.8574H38.752V36.4025ZM37.207 33.4512C36.6931 33.4512 36.2751 33.0332 36.2751 32.5193C36.2751 32.0055 36.6931 31.5875 37.207 31.5875H39.4551C39.8434 31.5875 40.1582 31.2727 40.1582 30.8844V28.6362C40.1582 28.1224 40.5762 27.7043 41.0902 27.7043C41.6042 27.7043 42.0222 28.1224 42.0222 28.6362V30.8844C42.0222 31.2727 42.337 31.5875 42.7253 31.5875H44.9734C45.4874 31.5875 45.9054 32.0055 45.9054 32.5193C45.9054 33.0332 45.4874 33.4512 44.9734 33.4512H42.7253C42.337 33.4512 42.0222 33.766 42.0222 34.1543V36.4025C42.0222 36.9163 41.6042 37.3345 41.0902 37.3345C40.5762 37.3345 40.1582 36.9165 40.1582 36.4025V34.1543C40.1582 33.766 39.8434 33.4512 39.4551 33.4512H37.207Z" fill="#7FC36E"/>
<path d="M35.0885 41.4006H31.8178C31.4295 41.4006 31.1147 41.7155 31.1147 42.1038C31.1147 42.4921 31.4295 42.8069 31.8178 42.8069H35.0885C35.4768 42.8069 35.7917 42.4921 35.7917 42.1038C35.7917 41.7155 35.4768 41.4006 35.0885 41.4006Z" fill="#7FC36E"/>
<path d="M37.8529 42.1038C37.8529 42.4921 38.1677 42.8069 38.556 42.8069H50.3627C50.751 42.8069 51.0658 42.4921 51.0658 42.1038C51.0658 41.7155 50.751 41.4006 50.3627 41.4006H38.556C38.1677 41.4006 37.8529 41.7155 37.8529 42.1038Z" fill="#7FC36E"/>
<path d="M35.0885 44.9553H31.8178C31.4295 44.9553 31.1147 45.2701 31.1147 45.6584C31.1147 46.0467 31.4295 46.3616 31.8178 46.3616H35.0885C35.4768 46.3616 35.7917 46.0467 35.7917 45.6584C35.7917 45.2701 35.4768 44.9553 35.0885 44.9553Z" fill="#7FC36E"/>
<path d="M50.3627 44.9553H38.556C38.1677 44.9553 37.8529 45.2701 37.8529 45.6584C37.8529 46.0467 38.1677 46.3616 38.556 46.3616H50.3627C50.751 46.3616 51.0658 46.0467 51.0658 45.6584C51.0658 45.2701 50.751 44.9553 50.3627 44.9553Z" fill="#7FC36E"/>
<path d="M35.0885 48.5099H31.8178C31.4295 48.5099 31.1147 48.8248 31.1147 49.2131C31.1147 49.6014 31.4295 49.9162 31.8178 49.9162H35.0885C35.4768 49.9162 35.7917 49.6014 35.7917 49.2131C35.7917 48.8248 35.4768 48.5099 35.0885 48.5099Z" fill="#7FC36E"/>
<path d="M50.3627 48.5099H38.556C38.1677 48.5099 37.8529 48.8248 37.8529 49.2131C37.8529 49.6014 38.1677 49.9162 38.556 49.9162H50.3627C50.751 49.9162 51.0658 49.6014 51.0658 49.2131C51.0658 48.8248 50.751 48.5099 50.3627 48.5099Z" fill="#7FC36E"/>
<path d="M35.0885 52.0646H31.8178C31.4295 52.0646 31.1147 52.3794 31.1147 52.7677C31.1147 53.156 31.4295 53.4708 31.8178 53.4708H35.0885C35.4768 53.4708 35.7917 53.156 35.7917 52.7677C35.7917 52.3794 35.4768 52.0646 35.0885 52.0646Z" fill="#7FC36E"/>
<path d="M50.3627 52.0646H38.556C38.1677 52.0646 37.8529 52.3794 37.8529 52.7677C37.8529 53.156 38.1677 53.4708 38.556 53.4708H50.3627C50.751 53.4708 51.0658 53.156 51.0658 52.7677C51.0658 52.3794 50.751 52.0646 50.3627 52.0646Z" fill="#7FC36E"/>
</svg>
