<svg width="82" height="81" viewBox="0 0 82 81" fill="none" xmlns="http://www.w3.org/2000/svg">
<circle cx="41" cy="40.5" r="40.5" fill="#3B3E3B"/>
<path d="M58.3548 46.416H24.6452C23.7989 46.416 23.1129 45.7074 23.1129 44.8333V23.2158C23.1129 22.3417 23.7989 21.6331 24.6452 21.6331H58.3546C59.2009 21.6331 59.8869 22.3417 59.8869 23.2158V44.8333C59.8871 45.7074 59.2009 46.416 58.3548 46.416Z" fill="white"/>
<path d="M26.1776 42.4592V25.5899C26.1776 25.153 26.5206 24.7986 26.9437 24.7986H56.0562C56.4792 24.7986 56.8223 25.153 56.8223 25.5899V42.4592C56.8223 42.8962 56.4792 43.2505 56.0562 43.2505H26.9437C26.5206 43.2505 26.1776 42.8962 26.1776 42.4592Z" fill="#93EC82"/>
<path d="M44.4743 46.416H38.5255V59.7241H44.4743V46.416Z" fill="white"/>
<path d="M26.9431 46.4164H24.6446C23.7988 46.4164 23.1123 45.7074 23.1123 44.8337V23.2152C23.1123 22.3415 23.7988 21.6324 24.6446 21.6324H26.9431C26.0972 21.6324 25.4108 22.3415 25.4108 23.2152V44.8337C25.4108 45.7074 26.0972 46.4164 26.9431 46.4164Z" fill="white"/>
<path d="M29.2415 43.251H26.943C26.5201 43.251 26.1769 42.8964 26.1769 42.4596V25.5893C26.1769 25.1524 26.5201 24.7979 26.943 24.7979H29.2415C28.8186 24.7979 28.4753 25.1524 28.4753 25.5893V42.4596C28.4753 42.8964 28.8186 43.251 29.2415 43.251Z" fill="#93EC82"/>
<path d="M59.8877 23.2152V44.8337C59.8877 45.7074 59.2012 46.4164 58.3553 46.4164H56.0569C56.9027 46.4164 57.5892 45.7074 57.5892 44.8337V23.2152C57.5892 22.3415 56.9027 21.6324 56.0569 21.6324H58.3553C59.2012 21.6324 59.8877 22.3415 59.8877 23.2152Z" fill="white"/>
<path d="M56.823 25.5893V42.4596C56.823 42.8964 56.4798 43.251 56.0569 43.251H53.7584C54.1813 43.251 54.5246 42.8964 54.5246 42.4596V25.5893C54.5246 25.1524 54.1813 24.7979 53.7584 24.7979H56.0569C56.4798 24.7979 56.823 25.1524 56.823 25.5893Z" fill="#407436"/>
<path d="M58.3548 21H24.6452C23.4623 21 22.5 21.994 22.5 23.2158V44.8332C22.5 46.0551 23.4623 47.0491 24.6452 47.0491H37.9126V59.091H32.5198C32.1813 59.091 31.9068 59.3744 31.9068 59.7241C31.9068 60.0737 32.1813 60.3571 32.5198 60.3571C35.9777 60.3571 47.0325 60.3571 50.4804 60.3571C50.8189 60.3571 51.0933 60.0737 51.0933 59.7241C51.0933 59.3744 50.8189 59.091 50.4804 59.091H45.0874V47.0491H58.3548C59.5377 47.0491 60.5 46.0551 60.5 44.8332V23.2158C60.5 21.994 59.5376 21 58.3548 21ZM43.8616 59.091H39.1386V47.0491H43.8616V59.091ZM59.2742 44.8332C59.2742 45.357 58.8618 45.7829 58.3548 45.7829C56.8842 45.7829 26.1029 45.7829 24.6454 45.7829C24.1383 45.7829 23.726 45.357 23.726 44.8332V23.2158C23.726 22.6921 24.1383 22.2662 24.6454 22.2662H58.3548C58.8618 22.2662 59.2742 22.6921 59.2742 23.2158V44.8332Z" fill="#7FC36E"/>
<path d="M56.0563 24.1654H26.9437C26.1833 24.1654 25.5646 24.8045 25.5646 25.5899V42.4591C25.5646 43.2444 26.1833 43.8835 26.9437 43.8835H56.0561C56.8164 43.8835 57.4352 43.2444 57.4352 42.4591V25.5899C57.4353 24.8044 56.8166 24.1654 56.0563 24.1654ZM56.2095 42.4591C56.2095 42.5463 56.1407 42.6174 56.0563 42.6174H26.9437C26.8592 42.6174 26.7904 42.5463 26.7904 42.4591V25.5899C26.7904 25.5027 26.8592 25.4316 26.9437 25.4316H56.0561C56.1405 25.4316 56.2093 25.5027 56.2093 25.5899L56.2095 42.4591Z" fill="#7FC36E"/>
<path d="M50.5321 35.109H46.1229L43.5229 30.6965C43.2723 30.2715 42.6689 30.2987 42.4527 30.7394L39.0295 37.7116L36.7928 28.3806C36.6555 27.8077 35.8966 27.7249 35.6465 28.2562L31.9167 36.1879C31.7688 36.5024 31.8957 36.8812 32.2003 37.0341C32.505 37.1869 32.8716 37.0557 33.0195 36.7411L36.0098 30.382L38.2358 39.6685C38.3716 40.2342 39.1193 40.3287 39.3774 39.8027L43.0482 32.3261L45.2548 36.0713C45.3661 36.2599 45.5645 36.3752 45.7784 36.3752H50.5321C50.8706 36.3752 51.145 36.0917 51.145 35.7421C51.145 35.3924 50.8706 35.109 50.5321 35.109Z" fill="#7FC36E"/>
<path d="M49.7745 38.7793H49.1105C48.7721 38.7793 48.4976 39.0628 48.4976 39.4124C48.4976 39.762 48.7721 40.0455 49.1105 40.0455H49.7745C50.113 40.0455 50.3874 39.762 50.3874 39.4124C50.3874 39.0628 50.113 38.7793 49.7745 38.7793Z" fill="#7FC36E"/>
<path d="M54.5246 38.7793H52.0729C51.7344 38.7793 51.46 39.0628 51.46 39.4124C51.46 39.762 51.7344 40.0455 52.0729 40.0455H54.5246C54.8631 40.0455 55.1375 39.762 55.1375 39.4124C55.1375 39.0628 54.8631 38.7793 54.5246 38.7793Z" fill="#7FC36E"/>
</svg>
