<svg width="82" height="81" viewBox="0 0 82 81" fill="none" xmlns="http://www.w3.org/2000/svg">
<circle cx="41" cy="40.5" r="40.5" fill="#3B3E3B"/>
<path d="M56.7605 41.4604C54.0159 41.4604 50.8949 39.8439 48.8697 36.5958C44.1268 28.9891 37.9787 28.4925 32.9262 36.5958C30.8998 39.8457 27.777 41.4604 25.0354 41.4604C24.7852 60.1273 57.0217 60.9424 56.7605 41.4604Z" fill="#F0F7EF"/>
<path d="M61.4578 37.9198C59.898 36.3341 57.2169 37.1318 56.6396 39.2398L56.23 40.7358C53.6506 40.5298 51.0983 38.8409 49.4665 36.2239C46.9277 32.1521 43.9596 30 40.8833 30C37.8261 30 34.8682 32.1521 32.3296 36.2239C30.698 38.8407 28.1454 40.5298 25.566 40.7358L25.1565 39.2398C24.5785 37.1295 21.8968 36.3355 20.3378 37.9204C19.7899 38.4785 19.5 39.2074 19.5 40.0283V44.8623C19.5 50.418 24.02 54.9381 29.5758 54.9381H33.4036C38.243 56.9826 44.0946 56.9817 48.811 54.9381H52.2199C57.7757 54.9381 62.2957 50.418 62.2957 44.8623V40.0283C62.2959 39.2074 62.0062 38.4785 61.4578 37.9198ZM29.576 53.5318C24.7956 53.5318 20.9064 49.6427 20.9064 44.8623V40.0283C20.9064 38.1671 23.3508 37.9692 23.8001 39.611L24.3324 41.5557C24.2969 46.5971 26.5632 50.8178 30.7417 53.5318H29.576ZM48.3965 53.5863C48.3939 53.5874 48.3914 53.5888 48.3889 53.5898C39.4951 57.5583 26.103 53.5023 25.7443 42.1321C28.7405 41.8663 31.6706 39.9387 33.5229 36.968C35.7914 33.3296 38.3367 31.4064 40.8833 31.4064C43.4491 31.4064 46.0045 33.3295 48.2731 36.968C50.1258 39.9396 53.0565 41.8673 56.0535 42.1322C55.9015 48.0603 52.6167 51.2279 49.8314 52.8526C49.3693 53.1221 48.8897 53.3659 48.3965 53.5863ZM60.8896 44.8623C60.8896 49.6427 57.0005 53.5318 52.2201 53.5318H51.3918C55.3573 50.8557 57.5016 46.643 57.4635 41.556L57.9959 39.6112C58.4435 37.9754 60.8896 38.1626 60.8896 40.0283V44.8623Z" fill="#7FC36E"/>
<path d="M49.7957 43.4733H32.0003C31.612 43.4733 31.2972 43.7881 31.2972 44.1764C31.2972 44.5647 31.612 44.8795 32.0003 44.8795H49.7957C50.184 44.8795 50.4988 44.5647 50.4988 44.1764C50.4988 43.7881 50.184 43.4733 49.7957 43.4733Z" fill="#7FC36E"/>
<path d="M47.4722 48.5743H34.3238C33.9355 48.5743 33.6207 48.8891 33.6207 49.2774C33.6207 49.6657 33.9355 49.9805 34.3238 49.9805H47.4722C47.8605 49.9805 48.1754 49.6657 48.1754 49.2774C48.1754 48.8891 47.8605 48.5743 47.4722 48.5743Z" fill="#7FC36E"/>
</svg>
