<svg width="82" height="81" viewBox="0 0 82 81" fill="none" xmlns="http://www.w3.org/2000/svg">
<circle cx="41" cy="40.5" r="40.5" fill="#3B3E3B"/>
<path d="M51.9424 23.0388V46.1189C51.9424 48.3355 50.1459 50.132 47.9293 50.132C45.7127 50.132 43.9162 48.3355 43.9162 46.1189V23.0388H51.9424Z" fill="#DADBD9"/>
<path d="M49.2477 49.9105C48.8346 50.0546 48.3916 50.132 47.9293 50.132C45.7127 50.132 43.9162 48.3355 43.9162 46.1189V23.0388H46.5529V46.1189C46.5529 47.8732 47.6779 49.3656 49.2477 49.9105Z" fill="#CBCCCA"/>
<path d="M51.9424 23.0388V46.1189C51.9424 48.3355 50.1459 50.132 47.9293 50.132C47.467 50.132 47.024 50.0546 46.6109 49.9105C48.1807 49.3656 49.3057 47.8732 49.3057 46.1189V23.0388H51.9424Z" fill="#DADBD9"/>
<path d="M51.9424 34.9408V46.1189C51.9424 48.3355 50.1459 50.132 47.9293 50.132C45.7127 50.132 43.9162 48.3355 43.9162 46.1189V34.9408H51.9424Z" fill="#93EC82"/>
<path d="M49.2459 49.9105C46.6301 50.8212 43.9162 48.8632 43.9162 46.1189V34.9408H46.5529V46.1189C46.5529 47.8732 47.6779 49.3638 49.2459 49.9105Z" fill="#93EC82"/>
<path d="M51.9424 34.9408V46.1189C51.9424 48.8045 49.2897 50.8425 46.6127 49.9105C48.1807 49.3638 49.3057 47.8732 49.3057 46.1189V34.9408H51.9424Z" fill="#93EC82"/>
<path d="M38.5531 18.7031H28.3578V23.0391H38.5531V18.7031Z" fill="#DADBD9"/>
<path d="M37.4686 23.0388V46.1189C37.4686 48.3355 35.6721 50.132 33.4555 50.132C31.2389 50.132 29.4424 48.3355 29.4424 46.1189V23.0388H37.4686Z" fill="#DADBD9"/>
<path d="M30.9945 18.7023H28.3578V23.0388H30.9945V18.7023Z" fill="#CBCCCA"/>
<path d="M34.7738 49.9105C34.3607 50.0546 33.9178 50.132 33.4555 50.132C31.2389 50.132 29.4424 48.3355 29.4424 46.1189V23.0388H32.0791V46.1189C32.0791 47.8732 33.2041 49.3656 34.7738 49.9105Z" fill="#CBCCCA"/>
<path d="M38.5531 18.7023H35.9164V23.0388H38.5531V18.7023Z" fill="#DADBD9"/>
<path d="M37.4686 23.0388V46.1189C37.4686 48.3355 35.6721 50.132 33.4555 50.132C32.9932 50.132 32.5502 50.0546 32.1371 49.9105C33.7068 49.3656 34.8318 47.8732 34.8318 46.1189V23.0388H37.4686Z" fill="#DADBD9"/>
<path d="M37.4686 39.9155V46.1188C37.4686 48.3354 35.6721 50.1319 33.4555 50.1319C31.2389 50.1319 29.4424 48.3354 29.4424 46.1188V39.9155H37.4686Z" fill="#D3E8CE"/>
<path d="M34.7721 49.9104C32.1563 50.8213 29.4424 48.8631 29.4424 46.1188V39.9155H32.0791V46.1188C32.0791 47.8731 33.2041 49.3638 34.7721 49.9104Z" fill="#D3E8CE"/>
<path d="M37.4686 39.9155V46.1188C37.4686 48.8044 34.8158 50.8424 32.1389 49.9104C33.7068 49.3638 34.8318 47.8731 34.8318 46.1188V39.9155H37.4686Z" fill="#D3E8CE"/>
<path d="M53.0269 18.7031H42.8316V23.0391H53.0269V18.7031Z" fill="#DADBD9"/>
<path d="M45.4684 18.7023H42.8316V23.0388H45.4684V18.7023Z" fill="#CBCCCA"/>
<path d="M53.027 18.7023H50.3902V23.0388H53.027V18.7023Z" fill="#DADBD9"/>
<path d="M60.2709 58.0121H20.2265C19.6614 58.0121 19.2031 57.554 19.2031 56.9887V55.3931C19.2031 54.828 19.6612 54.3697 20.2265 54.3697H60.2709C60.836 54.3697 61.2943 54.8278 61.2943 55.3931V56.9887C61.2943 57.5538 60.8362 58.0121 60.2709 58.0121Z" fill="white"/>
<path d="M62.1816 31.0787H60.5996V28.2561C60.5996 27.8678 60.2848 27.553 59.8965 27.553C59.5082 27.553 59.1934 27.8678 59.1934 28.2561V31.0788H52.646V23.7421H53.027C53.4153 23.7421 53.7301 23.4272 53.7301 23.0389V18.7031C53.7301 18.3148 53.4153 18 53.027 18H42.8316C42.4433 18 42.1285 18.3148 42.1285 18.7031V23.0389C42.1285 23.4272 42.4433 23.7421 42.8316 23.7421H43.2126V31.0787H38.1722V23.7421H38.5531C38.9414 23.7421 39.2563 23.4272 39.2563 23.0389V18.7031C39.2563 18.3148 38.9414 18 38.5531 18H28.3578C27.9695 18 27.6547 18.3148 27.6547 18.7031V23.0389C27.6547 23.4272 27.9695 23.7421 28.3578 23.7421H28.7387V31.0787H22.1914V28.2561C22.1914 27.8678 21.8766 27.553 21.4883 27.553C21.1 27.553 20.7852 27.8678 20.7852 28.2561V31.0788H19.2031C18.8148 31.0788 18.5 31.3937 18.5 31.782C18.5 32.1703 18.8148 32.4851 19.2031 32.4851H20.7852V53.6667H20.2265C19.2745 53.6667 18.5 54.4412 18.5 55.3932V56.9886C18.5 57.9407 19.2745 58.7152 20.2265 58.7152H60.2709C61.2229 58.7152 61.9974 57.9407 61.9974 56.9886V55.3932C61.9974 54.5537 61.3948 53.853 60.5996 53.6989V32.4849H62.1816C62.5699 32.4849 62.8848 32.1701 62.8848 31.7818C62.8848 31.3935 62.5699 31.0787 62.1816 31.0787ZM43.5348 19.4062H52.3238V22.3358C50.6613 22.3358 45.1934 22.3358 43.5348 22.3358V19.4062ZM44.6188 34.2376V32.4849H51.2398V34.2376H44.6188ZM51.2398 35.6439V46.1181C51.2398 47.9436 49.7548 49.4286 47.9293 49.4286C46.1038 49.4286 44.6188 47.9436 44.6188 46.1181V35.6439H51.2398ZM44.6188 31.0787V23.7421H51.2398V31.0787H44.6188ZM29.0609 19.4062H37.85V22.3358C36.1915 22.3358 30.7235 22.3358 29.0609 22.3358V19.4062ZM30.145 39.2126V32.4849H36.766V39.2124L30.145 39.2126ZM36.766 40.6188V46.1181C36.766 47.9436 35.281 49.4286 33.4555 49.4286C31.63 49.4286 30.145 47.9436 30.145 46.1181V40.6188H36.766ZM30.145 31.0787V23.7421H36.766V31.0787H30.145ZM22.1914 32.4849H28.7387V46.1181C28.7387 48.719 30.8546 50.8349 33.4555 50.8349C36.0563 50.8349 38.1722 48.719 38.1722 46.1181V32.4849H43.2126V46.1181C43.2126 48.719 45.3284 50.8349 47.9293 50.8349C50.5302 50.8349 52.646 48.719 52.646 46.1181V32.4849H59.1934V53.6665H22.1914V32.4849ZM60.5912 56.9886C60.5912 57.1653 60.4476 57.3089 60.2709 57.3089H20.2265C20.0499 57.3089 19.9062 57.1653 19.9062 56.9886V55.3932C19.9062 55.2166 20.0499 55.073 20.2265 55.073H60.2709C60.4476 55.073 60.5912 55.2166 60.5912 55.3932V56.9886Z" fill="#7FC36E"/>
<path d="M48.8956 39.7404C49.2839 39.7404 49.5987 39.4256 49.5987 39.0373V38.0999C49.5987 37.7116 49.2839 37.3967 48.8956 37.3967C48.5073 37.3967 48.1924 37.7116 48.1924 38.0999V39.0373C48.1924 39.4256 48.5073 39.7404 48.8956 39.7404Z" fill="#7FC36E"/>
<path d="M48.8956 44.3108C49.2839 44.3108 49.5987 43.996 49.5987 43.6077V41.6741C49.5987 41.2858 49.2839 40.9709 48.8956 40.9709C48.5073 40.9709 48.1924 41.2858 48.1924 41.6741V43.6077C48.1924 43.996 48.5073 44.3108 48.8956 44.3108Z" fill="#7FC36E"/>
</svg>
